<svg width="155" height="157" viewBox="0 0 155 157" fill="none" xmlns="http://www.w3.org/2000/svg">
<g clip-path="url(#clip0_1151_1070)">
<path d="M142.096 117.141C142.146 117.088 142.182 117.041 142.206 116.999C142.231 116.956 142.243 116.914 142.243 116.872C142.243 116.826 142.233 116.779 142.213 116.73C142.19 116.679 142.157 116.62 142.113 116.551L141.297 115.281C141.263 115.227 141.232 115.182 141.206 115.146C141.18 115.109 141.155 115.081 141.133 115.06C141.089 115.019 141.046 115.006 141.003 115.02C140.959 115.031 140.906 115.07 140.843 115.138L140.793 115.191L140.721 115.074L141.454 114.288L141.526 114.404C141.477 114.458 141.441 114.507 141.419 114.553C141.396 114.598 141.387 114.646 141.392 114.699C141.397 114.752 141.415 114.813 141.447 114.882C141.481 114.95 141.529 115.032 141.592 115.13L142.316 116.275C142.355 116.339 142.394 116.388 142.431 116.423C142.489 116.477 142.551 116.498 142.616 116.486C142.681 116.471 142.761 116.413 142.855 116.312C142.946 116.215 143.015 116.124 143.063 116.04C143.113 115.954 143.145 115.867 143.16 115.781C143.172 115.693 143.168 115.604 143.148 115.512C143.127 115.418 143.091 115.315 143.038 115.203L143.144 115.089L143.505 115.823L142.168 117.258L142.096 117.141ZM144.253 115.068C144.202 115.123 144.144 115.165 144.078 115.194C144.011 115.219 143.941 115.23 143.866 115.227C143.791 115.223 143.714 115.204 143.634 115.169C143.554 115.133 143.475 115.08 143.399 115.009C143.294 114.912 143.209 114.796 143.144 114.663C143.08 114.528 143.038 114.391 143.019 114.253C143 114.115 143.005 113.982 143.033 113.854C143.063 113.725 143.119 113.616 143.202 113.528C143.256 113.47 143.317 113.427 143.384 113.399C143.452 113.369 143.523 113.356 143.596 113.362C143.669 113.364 143.744 113.382 143.82 113.417C143.896 113.448 143.969 113.497 144.038 113.561C144.14 113.656 144.224 113.772 144.29 113.908C144.355 114.045 144.398 114.184 144.419 114.327C144.441 114.468 144.44 114.606 144.415 114.739C144.388 114.871 144.335 114.981 144.253 115.068ZM144.146 114.941C144.197 114.886 144.219 114.805 144.212 114.7C144.207 114.592 144.181 114.478 144.135 114.356C144.088 114.231 144.026 114.109 143.948 113.988C143.872 113.866 143.788 113.762 143.696 113.676C143.611 113.597 143.537 113.557 143.477 113.558C143.417 113.557 143.364 113.582 143.315 113.634C143.282 113.669 143.262 113.717 143.253 113.779C143.244 113.837 143.246 113.902 143.26 113.975C143.273 114.048 143.295 114.125 143.324 114.207C143.355 114.287 143.392 114.367 143.436 114.446C143.479 114.526 143.528 114.602 143.584 114.675C143.638 114.746 143.695 114.81 143.755 114.866C143.845 114.95 143.922 114.995 143.987 115C144.051 115.006 144.104 114.986 144.146 114.941ZM144.555 112.327C144.498 112.388 144.467 112.478 144.462 112.597C144.458 112.714 144.474 112.839 144.51 112.972C144.544 113.104 144.595 113.232 144.662 113.358C144.727 113.482 144.802 113.583 144.886 113.661C144.944 113.715 145.002 113.747 145.06 113.756C145.116 113.763 145.164 113.746 145.203 113.704C145.238 113.667 145.259 113.614 145.268 113.547C145.275 113.478 145.271 113.403 145.257 113.32C145.243 113.235 145.221 113.146 145.189 113.054C145.158 112.961 145.121 112.871 145.079 112.784C145.036 112.695 144.988 112.613 144.937 112.538C144.886 112.464 144.835 112.402 144.783 112.354C144.741 112.315 144.7 112.293 144.659 112.288C144.618 112.284 144.584 112.296 144.555 112.327ZM144.686 111.983L144.873 111.782L145.115 112.265C145.155 112.345 145.199 112.428 145.248 112.516C145.297 112.601 145.346 112.683 145.394 112.761C145.444 112.837 145.491 112.905 145.535 112.964C145.579 113.023 145.614 113.065 145.64 113.089C145.687 113.133 145.725 113.139 145.753 113.108C145.774 113.086 145.781 113.032 145.773 112.946C145.767 112.859 145.752 112.754 145.727 112.632L145.836 112.616C145.893 112.795 145.917 112.955 145.91 113.096C145.902 113.234 145.864 113.339 145.797 113.411C145.762 113.448 145.721 113.465 145.674 113.46C145.627 113.452 145.571 113.418 145.507 113.358C145.492 113.345 145.475 113.329 145.456 113.311C145.438 113.291 145.415 113.265 145.385 113.232L145.374 113.239C145.397 113.305 145.411 113.373 145.419 113.443C145.426 113.51 145.426 113.577 145.419 113.642C145.41 113.707 145.393 113.766 145.369 113.822C145.346 113.879 145.316 113.928 145.278 113.968C145.201 114.05 145.111 114.086 145.006 114.076C144.901 114.062 144.793 114.005 144.684 113.902C144.572 113.799 144.48 113.669 144.408 113.514C144.335 113.359 144.287 113.201 144.262 113.04C144.236 112.877 144.235 112.722 144.26 112.576C144.283 112.429 144.335 112.312 144.416 112.224C144.465 112.171 144.519 112.14 144.576 112.13C144.632 112.118 144.698 112.129 144.774 112.16L144.686 111.983ZM145.654 110.157C145.622 110.104 145.595 110.06 145.572 110.027C145.549 109.993 145.531 109.971 145.518 109.959C145.494 109.936 145.462 109.936 145.422 109.96C145.382 109.983 145.323 110.037 145.245 110.12L145.173 110.004L145.608 109.536L146.339 110.718C146.433 110.869 146.514 110.998 146.582 111.103C146.649 111.208 146.707 111.297 146.755 111.368C146.802 111.437 146.843 111.492 146.878 111.532C146.912 111.573 146.942 111.606 146.968 111.63C147.005 111.664 147.036 111.683 147.061 111.685C147.086 111.687 147.107 111.68 147.123 111.662C147.156 111.626 147.162 111.561 147.14 111.465C147.119 111.367 147.075 111.257 147.009 111.135L147.116 111.063C147.225 111.267 147.286 111.437 147.3 111.574C147.314 111.707 147.283 111.815 147.207 111.898C147.152 111.956 147.092 111.984 147.025 111.981C146.959 111.977 146.891 111.943 146.822 111.878C146.804 111.862 146.787 111.843 146.771 111.822C146.755 111.801 146.74 111.779 146.726 111.758L146.704 111.773C146.753 111.933 146.766 112.084 146.743 112.225C146.718 112.365 146.669 112.475 146.596 112.554C146.556 112.596 146.511 112.626 146.461 112.645C146.408 112.662 146.354 112.669 146.298 112.665C146.24 112.659 146.181 112.643 146.12 112.617C146.06 112.588 146.002 112.547 145.945 112.495C145.876 112.43 145.814 112.353 145.759 112.263C145.704 112.169 145.659 112.072 145.625 111.97C145.59 111.865 145.564 111.758 145.548 111.65C145.531 111.541 145.525 111.438 145.53 111.339C145.534 111.238 145.549 111.145 145.576 111.061C145.604 110.976 145.645 110.905 145.697 110.849C145.748 110.794 145.797 110.763 145.844 110.755C145.892 110.745 145.951 110.748 146.022 110.762L145.654 110.157ZM145.841 110.951C145.802 110.993 145.776 111.049 145.763 111.118C145.75 111.184 145.747 111.258 145.754 111.341C145.76 111.422 145.776 111.507 145.801 111.596C145.827 111.684 145.86 111.771 145.899 111.855C145.938 111.94 145.982 112.02 146.032 112.096C146.083 112.171 146.136 112.234 146.193 112.287C146.251 112.341 146.311 112.37 146.374 112.374C146.435 112.377 146.488 112.354 146.533 112.305C146.567 112.268 146.588 112.217 146.595 112.151C146.601 112.084 146.596 112.009 146.583 111.927C146.569 111.845 146.546 111.759 146.515 111.669C146.484 111.577 146.447 111.488 146.405 111.404C146.363 111.317 146.317 111.236 146.268 111.163C146.217 111.089 146.165 111.027 146.114 110.979C146.064 110.932 146.016 110.906 145.97 110.9C145.923 110.892 145.88 110.909 145.841 110.951ZM147.118 110.343C147.076 110.262 147.04 110.198 147.01 110.152C146.981 110.107 146.955 110.073 146.932 110.052C146.909 110.031 146.891 110.022 146.877 110.024C146.863 110.023 146.852 110.026 146.845 110.034C146.828 110.052 146.819 110.08 146.817 110.117C146.814 110.153 146.814 110.192 146.817 110.234C146.82 110.276 146.825 110.316 146.833 110.353C146.84 110.39 146.847 110.418 146.854 110.436L146.745 110.466C146.728 110.414 146.713 110.35 146.701 110.276C146.691 110.2 146.687 110.122 146.691 110.044C146.694 109.966 146.706 109.892 146.725 109.823C146.743 109.752 146.771 109.696 146.81 109.654C146.848 109.613 146.888 109.595 146.93 109.598C146.972 109.598 147.024 109.627 147.085 109.684C147.132 109.727 147.181 109.801 147.233 109.903C147.287 110.004 147.355 110.135 147.437 110.296L147.598 110.614C147.603 110.624 147.611 110.641 147.623 110.664C147.635 110.684 147.647 110.706 147.661 110.731C147.674 110.752 147.687 110.774 147.7 110.795C147.715 110.815 147.728 110.83 147.739 110.84C147.754 110.854 147.771 110.862 147.789 110.864C147.808 110.867 147.826 110.859 147.842 110.841C147.865 110.817 147.879 110.783 147.883 110.739C147.886 110.694 147.885 110.646 147.881 110.597C147.876 110.547 147.868 110.499 147.859 110.455C147.848 110.408 147.839 110.373 147.832 110.348L147.941 110.314C147.961 110.369 147.979 110.435 147.995 110.513C148.011 110.589 148.02 110.667 148.022 110.746C148.021 110.824 148.011 110.901 147.992 110.976C147.972 111.051 147.936 111.114 147.887 111.167C147.843 111.214 147.798 111.238 147.751 111.24C147.706 111.24 147.655 111.214 147.599 111.161C147.552 111.118 147.509 111.064 147.469 111C147.429 110.932 147.381 110.846 147.326 110.74L147.118 110.343ZM146.544 109.144C146.506 109.184 146.46 109.207 146.404 109.212C146.349 109.215 146.3 109.197 146.257 109.156C146.213 109.116 146.189 109.067 146.186 109.009C146.182 108.951 146.2 108.902 146.239 108.86C146.281 108.814 146.331 108.792 146.389 108.791C146.446 108.791 146.496 108.81 146.538 108.849C146.58 108.888 146.601 108.936 146.602 108.994C146.602 109.052 146.583 109.102 146.544 109.144ZM148.173 108.443C148.137 108.482 148.116 108.545 148.11 108.632C148.103 108.717 148.109 108.816 148.127 108.929C148.145 109.039 148.174 109.157 148.215 109.282C148.255 109.407 148.304 109.526 148.361 109.639L148.678 110.269L148.48 110.482L148.092 109.787C148.031 109.675 147.977 109.58 147.932 109.502C147.887 109.424 147.849 109.36 147.818 109.31C147.786 109.256 147.76 109.215 147.739 109.186C147.716 109.156 147.696 109.133 147.68 109.118C147.636 109.077 147.602 109.071 147.576 109.098C147.56 109.116 147.552 109.148 147.552 109.193C147.552 109.238 147.558 109.291 147.571 109.351C147.584 109.409 147.604 109.47 147.629 109.536C147.655 109.603 147.685 109.666 147.718 109.728L147.614 109.766C147.5 109.555 147.436 109.378 147.422 109.235C147.409 109.09 147.445 108.973 147.529 108.882C147.577 108.831 147.625 108.808 147.674 108.814C147.724 108.818 147.784 108.853 147.853 108.918C147.935 108.994 147.996 109.076 148.035 109.164L148.049 109.163C147.981 108.946 147.952 108.764 147.964 108.619C147.976 108.47 148.029 108.346 148.122 108.246C148.188 108.175 148.255 108.136 148.324 108.131C148.392 108.125 148.458 108.152 148.521 108.21C148.542 108.23 148.563 108.254 148.584 108.283C148.607 108.31 148.633 108.346 148.661 108.39C148.687 108.433 148.717 108.487 148.751 108.551C148.786 108.614 148.828 108.691 148.878 108.783C148.953 108.922 149.017 109.039 149.068 109.132C149.12 109.225 149.161 109.286 149.192 109.315C149.216 109.337 149.236 109.341 149.251 109.324C149.272 109.302 149.284 109.251 149.288 109.173C149.291 109.095 149.286 108.981 149.273 108.83L149.366 108.798C149.39 108.869 149.406 108.948 149.414 109.033C149.421 109.116 149.423 109.197 149.418 109.276C149.414 109.355 149.403 109.426 149.385 109.491C149.367 109.555 149.343 109.604 149.313 109.636C149.276 109.676 149.228 109.692 149.17 109.683C149.113 109.673 149.056 109.64 148.998 109.586C148.975 109.565 148.954 109.542 148.935 109.518C148.915 109.491 148.889 109.45 148.858 109.397C148.826 109.343 148.786 109.271 148.735 109.179C148.685 109.084 148.62 108.958 148.54 108.802C148.511 108.748 148.487 108.703 148.467 108.666C148.447 108.63 148.429 108.599 148.412 108.575C148.395 108.547 148.38 108.525 148.365 108.509C148.352 108.49 148.338 108.474 148.324 108.461C148.264 108.405 148.214 108.399 148.173 108.443ZM150.967 108.166C151.037 108.231 151.085 108.304 151.111 108.386C151.14 108.467 151.148 108.554 151.134 108.647C151.124 108.739 151.092 108.835 151.039 108.933C150.986 109.032 150.914 109.131 150.823 109.229C150.74 109.318 150.657 109.391 150.573 109.449C150.489 109.506 150.408 109.546 150.329 109.57C150.249 109.594 150.175 109.601 150.107 109.589C150.04 109.581 149.98 109.552 149.929 109.504C149.863 109.442 149.828 109.37 149.825 109.285C149.821 109.203 149.849 109.129 149.911 109.062C149.929 109.043 149.949 109.027 149.97 109.013C149.991 109 150.021 108.986 150.06 108.971C150.013 109.095 150.041 109.206 150.144 109.302C150.212 109.365 150.297 109.381 150.399 109.349C150.502 109.316 150.609 109.24 150.72 109.12C150.781 109.056 150.829 108.989 150.865 108.921C150.902 108.852 150.927 108.788 150.941 108.729C150.956 108.667 150.958 108.613 150.949 108.564C150.942 108.516 150.925 108.479 150.898 108.454C150.853 108.412 150.786 108.401 150.698 108.421C150.613 108.441 150.516 108.492 150.406 108.574C150.212 108.722 150.056 108.818 149.939 108.862C149.822 108.907 149.727 108.896 149.654 108.828C149.608 108.784 149.587 108.727 149.592 108.657C149.599 108.585 149.636 108.481 149.703 108.344L149.698 108.33C149.496 108.372 149.327 108.329 149.19 108.201C149.116 108.132 149.06 108.051 149.022 107.959C148.983 107.865 148.962 107.769 148.96 107.671C148.958 107.569 148.975 107.47 149.011 107.374C149.048 107.276 149.102 107.188 149.175 107.111C149.286 106.991 149.423 106.932 149.585 106.932C149.57 106.777 149.596 106.664 149.662 106.593C149.71 106.541 149.768 106.511 149.836 106.502C149.903 106.492 149.958 106.506 149.999 106.545C150.032 106.576 150.049 106.612 150.05 106.656C150.052 106.697 150.037 106.733 150.007 106.765C149.985 106.789 149.962 106.804 149.939 106.81C149.915 106.812 149.893 106.812 149.871 106.81C149.849 106.808 149.827 106.808 149.805 106.812C149.783 106.813 149.763 106.824 149.743 106.845C149.733 106.856 149.725 106.869 149.721 106.883C149.715 106.896 149.709 106.923 149.703 106.966C149.733 106.979 149.76 106.993 149.784 107.01C149.807 107.024 149.833 107.046 149.864 107.075C150.041 107.24 150.137 107.421 150.152 107.619C150.165 107.815 150.098 108.006 149.95 108.19C149.884 108.274 149.842 108.338 149.824 108.384C149.806 108.429 149.811 108.463 149.837 108.487C149.87 108.518 149.913 108.525 149.964 108.506C150.014 108.484 150.071 108.451 150.133 108.406C150.196 108.362 150.262 108.313 150.332 108.261C150.402 108.209 150.474 108.166 150.547 108.132C150.619 108.096 150.69 108.078 150.761 108.077C150.834 108.076 150.903 108.106 150.967 108.166ZM149.855 108.079C149.891 108.04 149.911 107.988 149.915 107.922C149.919 107.857 149.909 107.786 149.886 107.71C149.863 107.632 149.828 107.553 149.78 107.475C149.732 107.398 149.674 107.327 149.606 107.264C149.541 107.204 149.477 107.171 149.413 107.165C149.347 107.158 149.292 107.178 149.249 107.225C149.214 107.262 149.196 107.316 149.194 107.386C149.19 107.455 149.199 107.53 149.22 107.61C149.243 107.689 149.279 107.769 149.327 107.85C149.374 107.929 149.428 107.998 149.491 108.057C149.553 108.114 149.617 108.145 149.684 108.151C149.75 108.154 149.807 108.131 149.855 108.079ZM151.201 107.61C151.159 107.655 151.106 107.68 151.044 107.686C150.983 107.689 150.929 107.669 150.881 107.623C150.832 107.578 150.806 107.524 150.802 107.46C150.798 107.396 150.818 107.341 150.862 107.294C150.908 107.244 150.964 107.219 151.028 107.218C151.092 107.217 151.147 107.239 151.194 107.282C151.241 107.326 151.264 107.38 151.265 107.444C151.266 107.508 151.244 107.563 151.201 107.61ZM151.791 106.976C151.749 107.021 151.697 107.047 151.634 107.052C151.574 107.056 151.519 107.035 151.471 106.99C151.422 106.945 151.396 106.89 151.392 106.827C151.388 106.763 151.408 106.707 151.452 106.661C151.499 106.611 151.554 106.585 151.618 106.585C151.682 106.584 151.737 106.605 151.784 106.649C151.831 106.692 151.854 106.746 151.855 106.81C151.856 106.874 151.834 106.929 151.791 106.976ZM152.381 106.343C152.339 106.388 152.287 106.413 152.224 106.419C152.164 106.422 152.109 106.402 152.061 106.356C152.012 106.311 151.986 106.257 151.982 106.193C151.979 106.129 151.998 106.074 152.042 106.027C152.089 105.977 152.144 105.952 152.208 105.951C152.272 105.95 152.327 105.972 152.374 106.015C152.421 106.059 152.445 106.113 152.445 106.177C152.446 106.241 152.424 106.296 152.381 106.343Z" fill="white"/>
<g opacity="0.6" filter="url(#filter0_f_1151_1070)">
<ellipse cx="0.826998" cy="8.26998" rx="0.826998" ry="8.26998" transform="matrix(-0.681599 0.731726 0.731726 0.681599 74.9137 98.4911)" fill="white"/>
</g>
<g opacity="0.7" filter="url(#filter1_f_1151_1070)">
<ellipse cx="2.0675" cy="8.26998" rx="2.0675" ry="8.26998" transform="matrix(-0.681599 0.731726 0.731726 0.681599 80.0697 95.3825)" fill="white"/>
</g>
<g opacity="0.8" filter="url(#filter2_f_1151_1070)">
<ellipse cx="4.13499" cy="8.26998" rx="4.13499" ry="8.26998" transform="matrix(-0.681599 0.731726 0.731726 0.681599 88.0441 89.2482)" fill="white"/>
</g>
<g opacity="0.9" filter="url(#filter3_f_1151_1070)">
<ellipse cx="6.20249" cy="8.26998" rx="6.20249" ry="8.26998" transform="matrix(-0.681599 0.731726 0.731726 0.681599 98.837 80.0883)" fill="white"/>
</g>
<g opacity="0.6" filter="url(#filter4_f_1151_1070)">
<ellipse cx="135.642" cy="45.4297" rx="0.826998" ry="8.26998" transform="rotate(-47.0313 135.642 45.4297)" fill="white"/>
</g>
<g opacity="0.7" filter="url(#filter5_f_1151_1070)">
<ellipse cx="133.752" cy="49.8853" rx="2.0675" ry="8.26998" transform="rotate(-47.0313 133.752 49.8853)" fill="white"/>
</g>
<g opacity="0.8" filter="url(#filter6_f_1151_1070)">
<ellipse cx="129.607" cy="56.7614" rx="4.13499" ry="8.26998" transform="rotate(-47.0313 129.607 56.7614)" fill="white"/>
</g>
<g opacity="0.9" filter="url(#filter7_f_1151_1070)">
<ellipse cx="122.644" cy="66.6633" rx="6.20249" ry="8.26998" transform="rotate(-47.0313 122.644 66.6633)" fill="white"/>
</g>
<circle cx="112.863" cy="79.5908" r="8.26998" transform="rotate(-47.0313 112.863 79.5908)" fill="white"/>
<g opacity="0.8" filter="url(#filter8_f_1151_1070)">
<ellipse cx="0.826998" cy="8.26998" rx="0.826998" ry="8.26998" transform="matrix(0.681599 -0.731726 -0.731726 -0.681599 140.637 50.987)" fill="white"/>
</g>
<g opacity="0.6" filter="url(#filter9_f_1151_1070)">
<ellipse cx="2.0675" cy="8.26998" rx="2.0675" ry="8.26998" transform="matrix(0.681599 -0.731726 -0.731726 -0.681599 135.481 54.0956)" fill="white"/>
</g>
<g opacity="0.4" filter="url(#filter10_f_1151_1070)">
<ellipse cx="4.13499" cy="8.26998" rx="4.13499" ry="8.26998" transform="matrix(0.681599 -0.731726 -0.731726 -0.681599 127.507 60.2298)" fill="white"/>
</g>
<g opacity="0.2" filter="url(#filter11_f_1151_1070)">
<ellipse cx="6.20249" cy="8.26998" rx="6.20249" ry="8.26998" transform="matrix(0.681599 -0.731726 -0.731726 -0.681599 116.714 69.3898)" fill="white"/>
</g>
<g opacity="0.1" filter="url(#filter12_f_1151_1070)">
<circle cx="8.26998" cy="8.26998" r="8.26998" transform="matrix(0.681599 -0.731726 -0.731726 -0.681599 103.103 81.5754)" fill="white"/>
</g>
<g filter="url(#filter13_f_1151_1070)">
<ellipse cx="79.909" cy="104.048" rx="0.826998" ry="8.26998" transform="rotate(132.969 79.909 104.048)" fill="white"/>
</g>
<g opacity="0.6" filter="url(#filter14_f_1151_1070)">
<ellipse cx="81.799" cy="99.5928" rx="2.0675" ry="8.26998" transform="rotate(132.969 81.799 99.5928)" fill="white"/>
</g>
<g opacity="0.4" filter="url(#filter15_f_1151_1070)">
<ellipse cx="85.9436" cy="92.7166" rx="4.13499" ry="8.26998" transform="rotate(132.969 85.9436 92.7166)" fill="white"/>
</g>
<g opacity="0.2" filter="url(#filter16_f_1151_1070)">
<ellipse cx="92.9068" cy="82.8148" rx="6.20249" ry="8.26998" transform="rotate(132.969 92.9068 82.8148)" fill="white"/>
</g>
</g>
<defs>
<filter id="filter0_f_1151_1070" x="73.0002" y="97.7401" width="14.8023" height="13.9857" filterUnits="userSpaceOnUse" color-interpolation-filters="sRGB">
<feFlood flood-opacity="0" result="BackgroundImageFix"/>
<feBlend mode="normal" in="SourceGraphic" in2="BackgroundImageFix" result="shape"/>
<feGaussianBlur stdDeviation="0.661599" result="effect1_foregroundBlur_1151_1070"/>
</filter>
<filter id="filter1_f_1151_1070" x="77.5048" y="95.702" width="14.4141" height="13.6603" filterUnits="userSpaceOnUse" color-interpolation-filters="sRGB">
<feFlood flood-opacity="0" result="BackgroundImageFix"/>
<feBlend mode="normal" in="SourceGraphic" in2="BackgroundImageFix" result="shape"/>
<feGaussianBlur stdDeviation="0.496199" result="effect1_foregroundBlur_1151_1070"/>
</filter>
<filter id="filter2_f_1151_1070" x="83.9384" y="90.8503" width="14.6774" height="14.1208" filterUnits="userSpaceOnUse" color-interpolation-filters="sRGB">
<feFlood flood-opacity="0" result="BackgroundImageFix"/>
<feBlend mode="normal" in="SourceGraphic" in2="BackgroundImageFix" result="shape"/>
<feGaussianBlur stdDeviation="0.330799" result="effect1_foregroundBlur_1151_1070"/>
</filter>
<filter id="filter3_f_1151_1070" x="92.9475" y="82.6957" width="15.4266" height="15.1358" filterUnits="userSpaceOnUse" color-interpolation-filters="sRGB">
<feFlood flood-opacity="0" result="BackgroundImageFix"/>
<feBlend mode="normal" in="SourceGraphic" in2="BackgroundImageFix" result="shape"/>
<feGaussianBlur stdDeviation="0.1654" result="effect1_foregroundBlur_1151_1070"/>
</filter>
<filter id="filter4_f_1151_1070" x="128.241" y="38.4368" width="14.8023" height="13.9857" filterUnits="userSpaceOnUse" color-interpolation-filters="sRGB">
<feFlood flood-opacity="0" result="BackgroundImageFix"/>
<feBlend mode="normal" in="SourceGraphic" in2="BackgroundImageFix" result="shape"/>
<feGaussianBlur stdDeviation="0.661599" result="effect1_foregroundBlur_1151_1070"/>
</filter>
<filter id="filter5_f_1151_1070" x="126.545" y="43.0551" width="14.4141" height="13.6603" filterUnits="userSpaceOnUse" color-interpolation-filters="sRGB">
<feFlood flood-opacity="0" result="BackgroundImageFix"/>
<feBlend mode="normal" in="SourceGraphic" in2="BackgroundImageFix" result="shape"/>
<feGaussianBlur stdDeviation="0.496199" result="effect1_foregroundBlur_1151_1070"/>
</filter>
<filter id="filter6_f_1151_1070" x="122.269" y="49.7011" width="14.6774" height="14.1208" filterUnits="userSpaceOnUse" color-interpolation-filters="sRGB">
<feFlood flood-opacity="0" result="BackgroundImageFix"/>
<feBlend mode="normal" in="SourceGraphic" in2="BackgroundImageFix" result="shape"/>
<feGaussianBlur stdDeviation="0.330799" result="effect1_foregroundBlur_1151_1070"/>
</filter>
<filter id="filter7_f_1151_1070" x="114.931" y="59.0954" width="15.4266" height="15.1358" filterUnits="userSpaceOnUse" color-interpolation-filters="sRGB">
<feFlood flood-opacity="0" result="BackgroundImageFix"/>
<feBlend mode="normal" in="SourceGraphic" in2="BackgroundImageFix" result="shape"/>
<feGaussianBlur stdDeviation="0.1654" result="effect1_foregroundBlur_1151_1070"/>
</filter>
<filter id="filter8_f_1151_1070" x="127.749" y="37.7521" width="14.8023" height="13.9857" filterUnits="userSpaceOnUse" color-interpolation-filters="sRGB">
<feFlood flood-opacity="0" result="BackgroundImageFix"/>
<feBlend mode="normal" in="SourceGraphic" in2="BackgroundImageFix" result="shape"/>
<feGaussianBlur stdDeviation="0.661599" result="effect1_foregroundBlur_1151_1070"/>
</filter>
<filter id="filter9_f_1151_1070" x="122.971" y="39.4542" width="15.7373" height="14.9835" filterUnits="userSpaceOnUse" color-interpolation-filters="sRGB">
<feFlood flood-opacity="0" result="BackgroundImageFix"/>
<feBlend mode="normal" in="SourceGraphic" in2="BackgroundImageFix" result="shape"/>
<feGaussianBlur stdDeviation="0.826998" result="effect1_foregroundBlur_1151_1070"/>
</filter>
<filter id="filter10_f_1151_1070" x="115.281" y="42.853" width="17.9854" height="17.4287" filterUnits="userSpaceOnUse" color-interpolation-filters="sRGB">
<feFlood flood-opacity="0" result="BackgroundImageFix"/>
<feBlend mode="normal" in="SourceGraphic" in2="BackgroundImageFix" result="shape"/>
<feGaussianBlur stdDeviation="1.1578" result="effect1_foregroundBlur_1151_1070"/>
</filter>
<filter id="filter11_f_1151_1070" x="104.531" y="49.0002" width="20.7194" height="20.4286" filterUnits="userSpaceOnUse" color-interpolation-filters="sRGB">
<feFlood flood-opacity="0" result="BackgroundImageFix"/>
<feBlend mode="normal" in="SourceGraphic" in2="BackgroundImageFix" result="shape"/>
<feGaussianBlur stdDeviation="1.4886" result="effect1_foregroundBlur_1151_1070"/>
</filter>
<filter id="filter12_f_1151_1070" x="90.7795" y="57.9784" width="23.8176" height="23.8176" filterUnits="userSpaceOnUse" color-interpolation-filters="sRGB">
<feFlood flood-opacity="0" result="BackgroundImageFix"/>
<feBlend mode="normal" in="SourceGraphic" in2="BackgroundImageFix" result="shape"/>
<feGaussianBlur stdDeviation="1.8194" result="effect1_foregroundBlur_1151_1070"/>
</filter>
<filter id="filter13_f_1151_1070" x="72.5079" y="97.0555" width="14.8023" height="13.9857" filterUnits="userSpaceOnUse" color-interpolation-filters="sRGB">
<feFlood flood-opacity="0" result="BackgroundImageFix"/>
<feBlend mode="normal" in="SourceGraphic" in2="BackgroundImageFix" result="shape"/>
<feGaussianBlur stdDeviation="0.661599" result="effect1_foregroundBlur_1151_1070"/>
</filter>
<filter id="filter14_f_1151_1070" x="73.9303" y="92.101" width="15.7373" height="14.9835" filterUnits="userSpaceOnUse" color-interpolation-filters="sRGB">
<feFlood flood-opacity="0" result="BackgroundImageFix"/>
<feBlend mode="normal" in="SourceGraphic" in2="BackgroundImageFix" result="shape"/>
<feGaussianBlur stdDeviation="0.826998" result="effect1_foregroundBlur_1151_1070"/>
</filter>
<filter id="filter15_f_1151_1070" x="76.9509" y="84.0022" width="17.9854" height="17.4287" filterUnits="userSpaceOnUse" color-interpolation-filters="sRGB">
<feFlood flood-opacity="0" result="BackgroundImageFix"/>
<feBlend mode="normal" in="SourceGraphic" in2="BackgroundImageFix" result="shape"/>
<feGaussianBlur stdDeviation="1.1578" result="effect1_foregroundBlur_1151_1070"/>
</filter>
<filter id="filter16_f_1151_1070" x="82.5471" y="72.6005" width="20.7193" height="20.4286" filterUnits="userSpaceOnUse" color-interpolation-filters="sRGB">
<feFlood flood-opacity="0" result="BackgroundImageFix"/>
<feBlend mode="normal" in="SourceGraphic" in2="BackgroundImageFix" result="shape"/>
<feGaussianBlur stdDeviation="1.4886" result="effect1_foregroundBlur_1151_1070"/>
</filter>
<clipPath id="clip0_1151_1070">
<rect width="143.236" height="77.407" fill="white" transform="translate(0 104.659) rotate(-47.0313)"/>
</clipPath>
</defs>
</svg>
