<svg width="175" height="125" viewBox="0 0 175 125" fill="none" xmlns="http://www.w3.org/2000/svg">
<path d="M43.7737 111.151C43.8325 111.206 43.8848 111.247 43.9307 111.273C43.9783 111.301 44.0255 111.315 44.0722 111.315C44.1225 111.316 44.1749 111.305 44.2297 111.282C44.2861 111.258 44.3525 111.221 44.429 111.172L45.8434 110.274C45.9028 110.236 45.9529 110.203 45.9936 110.174C46.0343 110.145 46.0664 110.118 46.0898 110.093C46.1351 110.045 46.1501 109.997 46.1348 109.949C46.123 109.901 46.0796 109.841 46.0047 109.771L45.9459 109.715L46.076 109.636L46.9451 110.454L46.815 110.533C46.7562 110.478 46.7013 110.438 46.6503 110.414C46.601 110.387 46.547 110.377 46.4883 110.382C46.4296 110.387 46.3618 110.408 46.2849 110.443C46.2099 110.48 46.118 110.533 46.0092 110.602L44.7346 111.399C44.6632 111.443 44.6082 111.485 44.5696 111.526C44.5092 111.591 44.4853 111.659 44.4979 111.731C44.514 111.803 44.5782 111.892 44.6905 111.998C44.7975 112.099 44.8977 112.176 44.9911 112.23C45.0863 112.286 45.1818 112.323 45.2775 112.339C45.375 112.353 45.4744 112.349 45.5759 112.327C45.6809 112.305 45.7957 112.265 45.9204 112.207L46.0461 112.326L45.2295 112.722L43.6436 111.23L43.7737 111.151ZM46.0631 113.557C46.0025 113.5 45.9564 113.435 45.9247 113.361C45.8965 113.287 45.8846 113.209 45.889 113.126C45.8934 113.042 45.915 112.957 45.9539 112.869C45.9945 112.78 46.0542 112.693 46.133 112.609C46.2421 112.493 46.3708 112.399 46.5193 112.327C46.6696 112.257 46.8214 112.212 46.975 112.191C47.1285 112.171 47.2759 112.177 47.4171 112.209C47.5602 112.243 47.6807 112.306 47.7788 112.398C47.8429 112.458 47.89 112.526 47.92 112.602C47.9535 112.677 47.9671 112.755 47.961 112.837C47.9582 112.918 47.9374 113.001 47.8984 113.085C47.8628 113.17 47.809 113.25 47.7369 113.327C47.6312 113.439 47.5024 113.531 47.3504 113.603C47.1985 113.676 47.0432 113.723 46.8846 113.745C46.7277 113.769 46.5752 113.766 46.4271 113.738C46.2808 113.708 46.1594 113.647 46.0631 113.557ZM46.205 113.438C46.2656 113.495 46.3547 113.52 46.4723 113.513C46.5916 113.508 46.7189 113.48 46.8542 113.429C46.9929 113.378 47.1294 113.31 47.2636 113.224C47.3996 113.14 47.5154 113.048 47.611 112.946C47.6999 112.852 47.7442 112.771 47.7439 112.703C47.7453 112.637 47.7175 112.577 47.6605 112.524C47.6213 112.487 47.5677 112.463 47.4999 112.453C47.4355 112.443 47.3628 112.445 47.2819 112.46C47.2009 112.475 47.115 112.498 47.0242 112.53C46.9352 112.564 46.8464 112.605 46.7578 112.653C46.6692 112.7 46.5843 112.755 46.503 112.816C46.4234 112.876 46.3526 112.938 46.2905 113.004C46.1966 113.104 46.1464 113.19 46.1399 113.261C46.1334 113.332 46.1551 113.391 46.205 113.438ZM49.1039 113.907C49.0361 113.843 48.9364 113.808 48.8046 113.802C48.6745 113.797 48.5356 113.814 48.3879 113.854C48.2418 113.891 48.0989 113.946 47.9591 114.02C47.821 114.092 47.7084 114.174 47.6211 114.267C47.5607 114.331 47.5255 114.395 47.5153 114.459C47.5068 114.522 47.5257 114.575 47.5721 114.619C47.6131 114.657 47.671 114.682 47.7458 114.691C47.8222 114.699 47.9061 114.696 47.9974 114.681C48.0922 114.666 48.1911 114.641 48.2939 114.607C48.3968 114.573 48.4969 114.533 48.5942 114.486C48.6932 114.438 48.7842 114.386 48.8674 114.33C48.9505 114.274 49.0189 114.217 49.0726 114.16C49.1162 114.114 49.1408 114.068 49.1464 114.023C49.1519 113.978 49.1378 113.939 49.1039 113.907ZM49.485 114.054L49.707 114.263L49.1696 114.529C49.0809 114.573 48.988 114.622 48.8909 114.675C48.7955 114.73 48.7045 114.783 48.6178 114.836C48.5329 114.891 48.4574 114.943 48.3913 114.991C48.3253 115.04 48.2788 115.079 48.252 115.107C48.2033 115.159 48.1959 115.201 48.2298 115.233C48.2548 115.256 48.3148 115.264 48.4098 115.256C48.5066 115.249 48.6229 115.233 48.759 115.206L48.7756 115.328C48.5766 115.389 48.399 115.415 48.2429 115.406C48.0902 115.397 47.9738 115.355 47.8935 115.279C47.8525 115.241 47.8347 115.195 47.84 115.143C47.8488 115.091 47.8868 115.029 47.9539 114.958C47.969 114.942 47.9866 114.923 48.0067 114.902C48.0287 114.882 48.0582 114.856 48.0953 114.824L48.0871 114.811C48.0134 114.836 47.9377 114.852 47.86 114.859C47.7857 114.867 47.7121 114.866 47.6391 114.858C47.5678 114.848 47.5014 114.83 47.44 114.802C47.3769 114.776 47.323 114.742 47.2784 114.7C47.1875 114.615 47.1481 114.514 47.1601 114.397C47.1756 114.281 47.2404 114.162 47.3545 114.041C47.4702 113.918 47.6144 113.816 47.7869 113.737C47.9593 113.657 48.1352 113.604 48.3146 113.578C48.4955 113.55 48.667 113.55 48.8289 113.578C48.9925 113.604 49.1224 113.662 49.2187 113.753C49.2775 113.808 49.3123 113.868 49.3229 113.932C49.3351 113.994 49.3235 114.067 49.288 114.151L49.485 114.054ZM51.5061 115.139C51.5657 115.104 51.6141 115.074 51.6515 115.049C51.6888 115.023 51.7142 115.004 51.7276 114.989C51.7527 114.963 51.7525 114.927 51.7269 114.883C51.7013 114.839 51.6422 114.773 51.5495 114.686L51.6796 114.606L52.1957 115.092L50.8797 115.896C50.7114 116 50.5687 116.089 50.4514 116.163C50.3342 116.238 50.2357 116.302 50.1559 116.354C50.0796 116.407 50.0186 116.452 49.973 116.49C49.9274 116.527 49.8912 116.561 49.8643 116.589C49.8257 116.63 49.8051 116.664 49.8025 116.692C49.7999 116.72 49.8084 116.743 49.828 116.762C49.8672 116.798 49.9402 116.805 50.0468 116.781C50.1552 116.759 50.2776 116.711 50.4139 116.637L50.4929 116.757C50.2662 116.876 50.0769 116.944 49.9249 116.959C49.7764 116.974 49.6567 116.938 49.5658 116.853C49.5016 116.792 49.471 116.725 49.4739 116.65C49.4786 116.577 49.5171 116.503 49.5892 116.426C49.6076 116.406 49.6287 116.388 49.6524 116.369C49.6761 116.351 49.6999 116.335 49.7237 116.321L49.7073 116.295C49.5288 116.349 49.3613 116.363 49.2046 116.336C49.0496 116.308 48.9284 116.253 48.8411 116.171C48.7947 116.127 48.7612 116.077 48.7404 116.021C48.7213 115.962 48.7143 115.902 48.7193 115.839C48.726 115.775 48.7439 115.71 48.7731 115.643C48.8057 115.576 48.8513 115.511 48.91 115.449C48.9822 115.372 49.0684 115.304 49.1688 115.244C49.2726 115.183 49.381 115.134 49.4942 115.096C49.6108 115.058 49.7294 115.03 49.8501 115.013C49.9708 114.995 50.0858 114.989 50.1951 114.994C50.3078 115 50.4105 115.017 50.5032 115.047C50.5977 115.079 50.6761 115.124 50.7385 115.183C50.7992 115.24 50.8337 115.294 50.8422 115.346C50.8525 115.4 50.8493 115.465 50.8326 115.544L51.5061 115.139ZM50.6239 115.342C50.5775 115.299 50.516 115.269 50.4394 115.254C50.3662 115.239 50.2838 115.236 50.1923 115.244C50.1024 115.25 50.0077 115.267 49.908 115.294C49.8102 115.323 49.7143 115.359 49.6204 115.402C49.5264 115.444 49.437 115.493 49.352 115.547C49.2689 115.604 49.198 115.663 49.1392 115.725C49.0788 115.789 49.0462 115.856 49.0414 115.926C49.0383 115.993 49.0635 116.052 49.117 116.103C49.158 116.141 49.215 116.165 49.2879 116.173C49.3626 116.179 49.4456 116.175 49.5369 116.16C49.6283 116.145 49.7236 116.121 49.823 116.086C49.9259 116.052 50.0243 116.012 50.1181 115.966C50.2154 115.919 50.3048 115.869 50.3863 115.815C50.4694 115.758 50.5378 115.702 50.5915 115.645C50.6435 115.589 50.6731 115.537 50.6802 115.486C50.689 115.434 50.6702 115.386 50.6239 115.342ZM51.2923 116.763C51.3827 116.717 51.4533 116.677 51.5043 116.645C51.5552 116.612 51.5925 116.583 51.616 116.558C51.6394 116.533 51.6501 116.513 51.6479 116.498C51.6491 116.482 51.6453 116.47 51.6364 116.461C51.6168 116.443 51.5862 116.433 51.5445 116.431C51.5046 116.427 51.4613 116.426 51.4146 116.429C51.3679 116.432 51.324 116.438 51.2826 116.446C51.2413 116.454 51.2104 116.462 51.1898 116.47L51.1576 116.349C51.2159 116.33 51.2864 116.314 51.3691 116.301C51.4536 116.29 51.5393 116.286 51.626 116.29C51.7127 116.295 51.7945 116.308 51.8714 116.33C51.9499 116.35 52.0124 116.382 52.0587 116.425C52.1033 116.467 52.1237 116.512 52.1199 116.558C52.1196 116.605 52.0876 116.663 52.0238 116.73C51.9752 116.782 51.8937 116.836 51.7794 116.894C51.6669 116.952 51.5211 117.027 51.342 117.117L50.9889 117.294C50.977 117.3 50.9582 117.309 50.9326 117.322C50.9105 117.335 50.8858 117.349 50.8585 117.363C50.8347 117.378 50.8109 117.392 50.7871 117.407C50.7651 117.423 50.7482 117.438 50.7365 117.45C50.7214 117.466 50.7124 117.485 50.7096 117.505C50.7068 117.526 50.7152 117.546 50.7348 117.564C50.7615 117.59 50.7992 117.605 50.8479 117.61C50.8982 117.614 50.951 117.613 51.0063 117.608C51.0615 117.603 51.1141 117.595 51.164 117.585C51.2156 117.573 51.2551 117.563 51.2826 117.556L51.3201 117.676C51.2584 117.699 51.1845 117.719 51.0984 117.735C51.0141 117.753 50.9278 117.763 50.8395 117.764C50.7529 117.763 50.6677 117.752 50.5839 117.73C50.5018 117.707 50.4314 117.667 50.3725 117.612C50.3208 117.563 50.2942 117.513 50.2926 117.461C50.2928 117.411 50.3223 117.354 50.381 117.292C50.4296 117.24 50.4897 117.193 50.5611 117.149C50.6359 117.105 50.7322 117.053 50.8498 116.992L51.2923 116.763ZM52.6265 116.133C52.5819 116.091 52.557 116.039 52.5516 115.976C52.5481 115.916 52.5689 115.862 52.6142 115.813C52.6595 115.765 52.7141 115.739 52.7781 115.736C52.8421 115.732 52.8972 115.752 52.9436 115.796C52.9935 115.843 53.0186 115.898 53.0188 115.962C53.019 116.026 52.9973 116.082 52.9537 116.128C52.9101 116.174 52.8562 116.198 52.7922 116.198C52.7281 116.198 52.6729 116.176 52.6265 116.133ZM53.3954 117.945C53.3526 117.905 53.2826 117.881 53.1854 117.874C53.0916 117.866 52.9819 117.872 52.856 117.891C52.7337 117.911 52.603 117.942 52.4641 117.987C52.3251 118.031 52.1925 118.084 52.0663 118.147L51.3651 118.495L51.1298 118.274L51.9039 117.848C52.0283 117.78 52.1339 117.721 52.2207 117.672C52.3075 117.622 52.379 117.58 52.4351 117.546C52.4946 117.511 52.5405 117.482 52.5727 117.458C52.6066 117.433 52.6319 117.412 52.6487 117.394C52.6939 117.346 52.7014 117.307 52.6711 117.279C52.6515 117.26 52.6166 117.251 52.5664 117.251C52.5161 117.251 52.4575 117.258 52.3904 117.272C52.3267 117.286 52.2581 117.307 52.1845 117.335C52.1109 117.363 52.04 117.396 51.9718 117.433L51.9293 117.317C52.1645 117.192 52.3616 117.122 52.5204 117.107C52.6811 117.093 52.8113 117.133 52.9112 117.227C52.9682 117.281 52.9932 117.335 52.9862 117.389C52.981 117.444 52.9423 117.51 52.8701 117.587C52.7846 117.678 52.6931 117.745 52.5957 117.788L52.5962 117.803C52.8381 117.728 53.0398 117.698 53.2013 117.712C53.3662 117.726 53.504 117.785 53.6145 117.889C53.6929 117.963 53.7351 118.038 53.7408 118.114C53.7466 118.19 53.7168 118.263 53.6514 118.332C53.6295 118.355 53.6025 118.379 53.5704 118.402C53.5399 118.427 53.5001 118.455 53.4508 118.486C53.4032 118.516 53.3436 118.549 53.272 118.585C53.2022 118.624 53.1161 118.671 53.0139 118.726C52.8588 118.808 52.7293 118.878 52.6254 118.935C52.5215 118.992 52.4536 119.037 52.4217 119.071C52.3966 119.098 52.3929 119.12 52.4107 119.136C52.4357 119.16 52.4915 119.174 52.5782 119.178C52.665 119.182 52.7921 119.178 52.9597 119.164L52.994 119.267C52.9151 119.293 52.8282 119.311 52.7332 119.319C52.6417 119.327 52.5516 119.328 52.4631 119.322C52.3764 119.317 52.2972 119.305 52.2256 119.285C52.154 119.265 52.1003 119.238 52.0647 119.204C52.0201 119.162 52.0029 119.109 52.0131 119.045C52.025 118.982 52.0612 118.918 52.1216 118.854C52.1451 118.829 52.1703 118.806 52.1974 118.784C52.2279 118.763 52.2729 118.734 52.3325 118.7C52.3921 118.665 52.4729 118.62 52.5752 118.565C52.6809 118.51 52.8207 118.438 52.9947 118.35C53.0543 118.318 53.1046 118.292 53.1455 118.27C53.1864 118.248 53.2204 118.228 53.2476 118.209C53.2782 118.191 53.3028 118.174 53.3213 118.158C53.3417 118.143 53.3594 118.128 53.3745 118.112C53.4366 118.046 53.4435 117.99 53.3954 117.945ZM53.6871 121.048C53.615 121.125 53.5334 121.178 53.4425 121.206C53.3517 121.239 53.255 121.247 53.1523 121.231C53.0498 121.218 52.9439 121.183 52.8347 121.124C52.7256 121.065 52.6166 120.984 52.5079 120.882C52.4098 120.789 52.329 120.696 52.2656 120.603C52.2021 120.51 52.1578 120.419 52.1326 120.332C52.1057 120.243 52.0989 120.161 52.1122 120.086C52.122 120.011 52.1538 119.945 52.2075 119.888C52.2762 119.815 52.3574 119.777 52.4508 119.774C52.5424 119.77 52.6248 119.802 52.6979 119.87C52.7193 119.891 52.7373 119.913 52.7519 119.936C52.7664 119.96 52.7822 119.993 52.7991 120.036C52.6606 119.983 52.5377 120.014 52.4304 120.128C52.3599 120.203 52.342 120.297 52.3766 120.41C52.413 120.525 52.4972 120.645 52.6291 120.769C52.7004 120.836 52.7739 120.89 52.8497 120.931C52.9254 120.972 52.9964 121 53.0627 121.015C53.1307 121.032 53.1914 121.036 53.2448 121.025C53.2983 121.019 53.3393 121 53.3678 120.97C53.4148 120.92 53.4272 120.846 53.4052 120.748C53.3833 120.653 53.3272 120.545 53.2369 120.423C53.0744 120.206 52.9687 120.033 52.9197 119.903C52.8707 119.773 52.884 119.667 52.9594 119.587C53.0081 119.535 53.0715 119.513 53.1496 119.519C53.2295 119.527 53.3451 119.568 53.4963 119.644L53.5117 119.638C53.4668 119.414 53.5156 119.226 53.6582 119.075C53.7354 118.993 53.8253 118.931 53.928 118.89C54.0323 118.847 54.139 118.825 54.2481 118.823C54.3606 118.821 54.4703 118.841 54.5771 118.881C54.6858 118.922 54.7829 118.984 54.8685 119.064C55.0004 119.188 55.0656 119.34 55.0642 119.52C55.2369 119.505 55.3625 119.534 55.4409 119.608C55.498 119.661 55.5311 119.726 55.5403 119.802C55.5513 119.876 55.5349 119.937 55.4913 119.983C55.4577 120.019 55.4167 120.037 55.3683 120.039C55.3233 120.04 55.283 120.024 55.2473 119.99C55.2206 119.965 55.2042 119.94 55.1982 119.914C55.1957 119.888 55.1958 119.863 55.1986 119.839C55.2013 119.814 55.2005 119.79 55.1963 119.766C55.1956 119.742 55.1836 119.719 55.1605 119.697C55.148 119.685 55.1339 119.677 55.1182 119.672C55.1041 119.666 55.0736 119.659 55.0266 119.652C55.012 119.685 54.9956 119.715 54.9774 119.741C54.9608 119.766 54.9366 119.795 54.9047 119.829C54.7202 120.025 54.5182 120.131 54.2987 120.146C54.0809 120.16 53.8699 120.084 53.6657 119.919C53.5734 119.846 53.5019 119.798 53.451 119.777C53.4019 119.758 53.364 119.763 53.3371 119.791C53.3019 119.829 53.2947 119.876 53.3154 119.932C53.3397 119.989 53.3762 120.052 53.4251 120.121C53.474 120.191 53.5273 120.264 53.5851 120.342C53.6429 120.42 53.6903 120.5 53.7275 120.582C53.7663 120.662 53.786 120.741 53.7866 120.819C53.7874 120.901 53.7542 120.977 53.6871 121.048ZM53.7898 119.814C53.8326 119.854 53.8905 119.877 53.9633 119.881C54.0362 119.886 54.1147 119.876 54.1988 119.851C54.2864 119.826 54.3735 119.787 54.4602 119.734C54.5469 119.681 54.6255 119.617 54.696 119.542C54.7631 119.471 54.7999 119.399 54.8064 119.328C54.8145 119.255 54.7928 119.194 54.7411 119.146C54.7001 119.107 54.6405 119.087 54.5625 119.084C54.4862 119.079 54.4033 119.089 54.314 119.112C54.2264 119.137 54.1376 119.176 54.0474 119.229C53.9589 119.28 53.8819 119.341 53.8165 119.41C53.7528 119.478 53.7177 119.549 53.7113 119.624C53.7066 119.697 53.7328 119.76 53.7898 119.814ZM54.3032 121.31C54.2533 121.263 54.2255 121.205 54.2199 121.136C54.2162 121.069 54.2394 121.008 54.2898 120.955C54.3401 120.901 54.4007 120.873 54.4716 120.869C54.5425 120.865 54.6038 120.887 54.6555 120.936C54.7107 120.988 54.7386 121.049 54.739 121.12C54.7394 121.191 54.7153 121.253 54.6667 121.304C54.618 121.356 54.5582 121.382 54.4872 121.383C54.4162 121.383 54.3549 121.359 54.3032 121.31ZM55.0031 121.969C54.9532 121.922 54.9254 121.864 54.9199 121.795C54.9161 121.727 54.9393 121.667 54.9897 121.613C55.04 121.56 55.1006 121.531 55.1715 121.527C55.2424 121.523 55.3037 121.546 55.3554 121.594C55.4106 121.646 55.4385 121.708 55.4389 121.779C55.4394 121.85 55.4152 121.911 55.3666 121.963C55.3179 122.015 55.2581 122.041 55.1871 122.041C55.1161 122.042 55.0548 122.018 55.0031 121.969ZM55.703 122.627C55.6531 122.581 55.6253 122.522 55.6198 122.453C55.616 122.386 55.6393 122.325 55.6896 122.272C55.7399 122.219 55.8005 122.19 55.8714 122.186C55.9423 122.182 56.0036 122.204 56.0553 122.253C56.1106 122.305 56.1384 122.367 56.1388 122.438C56.1393 122.509 56.1152 122.57 56.0665 122.622C56.0179 122.673 55.958 122.699 55.887 122.7C55.8161 122.7 55.7547 122.676 55.703 122.627Z" fill="white"/>
<g opacity="0.6" filter="url(#filter0_f_1151_1044)">
<ellipse cx="0.918014" cy="9.18014" rx="0.918014" ry="9.18014" transform="matrix(-0.728284 -0.685276 -0.685276 0.728284 65.3109 36.1918)" fill="white"/>
</g>
<g opacity="0.7" filter="url(#filter1_f_1151_1044)">
<ellipse cx="2.29503" cy="9.18014" rx="2.29503" ry="9.18014" transform="matrix(-0.728284 -0.685276 -0.685276 0.728284 68.7327 41.9325)" fill="white"/>
</g>
<g opacity="0.8" filter="url(#filter2_f_1151_1044)">
<ellipse cx="4.59007" cy="9.18014" rx="4.59007" ry="9.18014" transform="matrix(-0.728284 -0.685276 -0.685276 0.728284 75.4974 50.8188)" fill="white"/>
</g>
<g opacity="0.9" filter="url(#filter3_f_1151_1044)">
<ellipse cx="6.8851" cy="9.18014" rx="6.8851" ry="9.18014" transform="matrix(-0.728284 -0.685276 -0.685276 0.728284 85.605 62.8505)" fill="white"/>
</g>
<g opacity="0.6" filter="url(#filter4_f_1151_1044)">
<ellipse cx="123.872" cy="103.899" rx="0.918014" ry="9.18014" transform="rotate(43.2573 123.872 103.899)" fill="white"/>
</g>
<g opacity="0.7" filter="url(#filter5_f_1151_1044)">
<ellipse cx="118.936" cy="101.777" rx="2.29503" ry="9.18014" transform="rotate(43.2573 118.936 101.777)" fill="white"/>
</g>
<g opacity="0.8" filter="url(#filter6_f_1151_1044)">
<ellipse cx="111.327" cy="97.1374" rx="4.59007" ry="9.18014" transform="rotate(43.2573 111.327 97.1374)" fill="white"/>
</g>
<g opacity="0.9" filter="url(#filter7_f_1151_1044)">
<ellipse cx="100.374" cy="89.3527" rx="6.8851" ry="9.18014" transform="rotate(43.2573 100.374 89.3527)" fill="white"/>
</g>
<circle cx="86.0787" cy="78.4225" r="9.18014" transform="rotate(43.2573 86.0787 78.4225)" fill="white"/>
<g opacity="0.8" filter="url(#filter8_f_1151_1044)">
<ellipse cx="0.918014" cy="9.18014" rx="0.918014" ry="9.18014" transform="matrix(0.728284 0.685276 0.685276 -0.728284 117.675 109.413)" fill="white"/>
</g>
<g opacity="0.6" filter="url(#filter9_f_1151_1044)">
<ellipse cx="2.29503" cy="9.18014" rx="2.29503" ry="9.18014" transform="matrix(0.728284 0.685276 0.685276 -0.728284 114.253 103.673)" fill="white"/>
</g>
<g opacity="0.4" filter="url(#filter10_f_1151_1044)">
<ellipse cx="4.59007" cy="9.18014" rx="4.59007" ry="9.18014" transform="matrix(0.728284 0.685276 0.685276 -0.728284 107.488 94.7864)" fill="white"/>
</g>
<g opacity="0.2" filter="url(#filter11_f_1151_1044)">
<ellipse cx="6.8851" cy="9.18014" rx="6.8851" ry="9.18014" transform="matrix(0.728284 0.685276 0.685276 -0.728284 97.3808 82.7546)" fill="white"/>
</g>
<g opacity="0.1" filter="url(#filter12_f_1151_1044)">
<circle cx="9.18014" cy="9.18014" r="9.18014" transform="matrix(0.728284 0.685276 0.685276 -0.728284 83.9303 67.5775)" fill="white"/>
</g>
<g filter="url(#filter13_f_1151_1044)">
<ellipse cx="59.1141" cy="41.7057" rx="0.918014" ry="9.18014" transform="rotate(-136.743 59.1141 41.7057)" fill="white"/>
</g>
<g opacity="0.6" filter="url(#filter14_f_1151_1044)">
<ellipse cx="64.0494" cy="43.8285" rx="2.29503" ry="9.18014" transform="rotate(-136.743 64.0494 43.8285)" fill="white"/>
</g>
<g opacity="0.4" filter="url(#filter15_f_1151_1044)">
<ellipse cx="71.6591" cy="48.4678" rx="4.59007" ry="9.18014" transform="rotate(-136.743 71.6591 48.4678)" fill="white"/>
</g>
<g opacity="0.2" filter="url(#filter16_f_1151_1044)">
<ellipse cx="82.6116" cy="56.2525" rx="6.8851" ry="9.18014" transform="rotate(-136.743 82.6116 56.2525)" fill="white"/>
</g>
<defs>
<filter id="filter0_f_1151_1044" x="50.5557" y="34.0638" width="15.5914" height="16.3691" filterUnits="userSpaceOnUse" color-interpolation-filters="sRGB">
<feFlood flood-opacity="0" result="BackgroundImageFix"/>
<feBlend mode="normal" in="SourceGraphic" in2="BackgroundImageFix" result="shape"/>
<feGaussianBlur stdDeviation="0.734411" result="effect1_foregroundBlur_1151_1044"/>
</filter>
<filter id="filter1_f_1151_1044" x="53.1579" y="39.0742" width="15.2248" height="15.9428" filterUnits="userSpaceOnUse" color-interpolation-filters="sRGB">
<feFlood flood-opacity="0" result="BackgroundImageFix"/>
<feBlend mode="normal" in="SourceGraphic" in2="BackgroundImageFix" result="shape"/>
<feGaussianBlur stdDeviation="0.550808" result="effect1_foregroundBlur_1151_1044"/>
</filter>
<filter id="filter2_f_1151_1044" x="58.0038" y="46.2342" width="15.7196" height="16.2497" filterUnits="userSpaceOnUse" color-interpolation-filters="sRGB">
<feFlood flood-opacity="0" result="BackgroundImageFix"/>
<feBlend mode="normal" in="SourceGraphic" in2="BackgroundImageFix" result="shape"/>
<feGaussianBlur stdDeviation="0.367206" result="effect1_foregroundBlur_1151_1044"/>
</filter>
<filter id="filter3_f_1151_1044" x="65.8874" y="56.2673" width="16.8247" height="17.1016" filterUnits="userSpaceOnUse" color-interpolation-filters="sRGB">
<feFlood flood-opacity="0" result="BackgroundImageFix"/>
<feBlend mode="normal" in="SourceGraphic" in2="BackgroundImageFix" result="shape"/>
<feGaussianBlur stdDeviation="0.183603" result="effect1_foregroundBlur_1151_1044"/>
</filter>
<filter id="filter4_f_1151_1044" x="116.076" y="95.7149" width="15.5914" height="16.3691" filterUnits="userSpaceOnUse" color-interpolation-filters="sRGB">
<feFlood flood-opacity="0" result="BackgroundImageFix"/>
<feBlend mode="normal" in="SourceGraphic" in2="BackgroundImageFix" result="shape"/>
<feGaussianBlur stdDeviation="0.734411" result="effect1_foregroundBlur_1151_1044"/>
</filter>
<filter id="filter5_f_1151_1044" x="111.324" y="93.8052" width="15.2248" height="15.9428" filterUnits="userSpaceOnUse" color-interpolation-filters="sRGB">
<feFlood flood-opacity="0" result="BackgroundImageFix"/>
<feBlend mode="normal" in="SourceGraphic" in2="BackgroundImageFix" result="shape"/>
<feGaussianBlur stdDeviation="0.550808" result="effect1_foregroundBlur_1151_1044"/>
</filter>
<filter id="filter6_f_1151_1044" x="103.467" y="89.0125" width="15.7196" height="16.2497" filterUnits="userSpaceOnUse" color-interpolation-filters="sRGB">
<feFlood flood-opacity="0" result="BackgroundImageFix"/>
<feBlend mode="normal" in="SourceGraphic" in2="BackgroundImageFix" result="shape"/>
<feGaussianBlur stdDeviation="0.367206" result="effect1_foregroundBlur_1151_1044"/>
</filter>
<filter id="filter7_f_1151_1044" x="91.9618" y="80.8019" width="16.8247" height="17.1016" filterUnits="userSpaceOnUse" color-interpolation-filters="sRGB">
<feFlood flood-opacity="0" result="BackgroundImageFix"/>
<feBlend mode="normal" in="SourceGraphic" in2="BackgroundImageFix" result="shape"/>
<feGaussianBlur stdDeviation="0.183603" result="effect1_foregroundBlur_1151_1044"/>
</filter>
<filter id="filter8_f_1151_1044" x="116.839" y="95.1722" width="15.5914" height="16.3691" filterUnits="userSpaceOnUse" color-interpolation-filters="sRGB">
<feFlood flood-opacity="0" result="BackgroundImageFix"/>
<feBlend mode="normal" in="SourceGraphic" in2="BackgroundImageFix" result="shape"/>
<feGaussianBlur stdDeviation="0.734411" result="effect1_foregroundBlur_1151_1044"/>
</filter>
<filter id="filter9_f_1151_1044" x="113.869" y="89.8538" width="16.6936" height="17.4116" filterUnits="userSpaceOnUse" color-interpolation-filters="sRGB">
<feFlood flood-opacity="0" result="BackgroundImageFix"/>
<feBlend mode="normal" in="SourceGraphic" in2="BackgroundImageFix" result="shape"/>
<feGaussianBlur stdDeviation="0.918014" result="effect1_foregroundBlur_1151_1044"/>
</filter>
<filter id="filter10_f_1151_1044" x="107.426" y="81.2852" width="19.3916" height="19.9218" filterUnits="userSpaceOnUse" color-interpolation-filters="sRGB">
<feFlood flood-opacity="0" result="BackgroundImageFix"/>
<feBlend mode="normal" in="SourceGraphic" in2="BackgroundImageFix" result="shape"/>
<feGaussianBlur stdDeviation="1.28522" result="effect1_foregroundBlur_1151_1044"/>
</filter>
<filter id="filter11_f_1151_1044" x="97.336" y="69.2986" width="22.6999" height="22.9769" filterUnits="userSpaceOnUse" color-interpolation-filters="sRGB">
<feFlood flood-opacity="0" result="BackgroundImageFix"/>
<feBlend mode="normal" in="SourceGraphic" in2="BackgroundImageFix" result="shape"/>
<feGaussianBlur stdDeviation="1.65242" result="effect1_foregroundBlur_1151_1044"/>
</filter>
<filter id="filter12_f_1151_1044" x="83.6876" y="53.9632" width="26.4388" height="26.4389" filterUnits="userSpaceOnUse" color-interpolation-filters="sRGB">
<feFlood flood-opacity="0" result="BackgroundImageFix"/>
<feBlend mode="normal" in="SourceGraphic" in2="BackgroundImageFix" result="shape"/>
<feGaussianBlur stdDeviation="2.01963" result="effect1_foregroundBlur_1151_1044"/>
</filter>
<filter id="filter13_f_1151_1044" x="51.3184" y="33.5211" width="15.5914" height="16.3691" filterUnits="userSpaceOnUse" color-interpolation-filters="sRGB">
<feFlood flood-opacity="0" result="BackgroundImageFix"/>
<feBlend mode="normal" in="SourceGraphic" in2="BackgroundImageFix" result="shape"/>
<feGaussianBlur stdDeviation="0.734411" result="effect1_foregroundBlur_1151_1044"/>
</filter>
<filter id="filter14_f_1151_1044" x="55.7026" y="35.1227" width="16.6937" height="17.4116" filterUnits="userSpaceOnUse" color-interpolation-filters="sRGB">
<feFlood flood-opacity="0" result="BackgroundImageFix"/>
<feBlend mode="normal" in="SourceGraphic" in2="BackgroundImageFix" result="shape"/>
<feGaussianBlur stdDeviation="0.918014" result="effect1_foregroundBlur_1151_1044"/>
</filter>
<filter id="filter15_f_1151_1044" x="61.9633" y="38.5069" width="19.3916" height="19.9218" filterUnits="userSpaceOnUse" color-interpolation-filters="sRGB">
<feFlood flood-opacity="0" result="BackgroundImageFix"/>
<feBlend mode="normal" in="SourceGraphic" in2="BackgroundImageFix" result="shape"/>
<feGaussianBlur stdDeviation="1.28522" result="effect1_foregroundBlur_1151_1044"/>
</filter>
<filter id="filter16_f_1151_1044" x="71.2616" y="44.764" width="22.6999" height="22.9769" filterUnits="userSpaceOnUse" color-interpolation-filters="sRGB">
<feFlood flood-opacity="0" result="BackgroundImageFix"/>
<feBlend mode="normal" in="SourceGraphic" in2="BackgroundImageFix" result="shape"/>
<feGaussianBlur stdDeviation="1.65242" result="effect1_foregroundBlur_1151_1044"/>
</filter>
</defs>
</svg>
